<svg width="820" height="560" viewBox="0 0 820 560" xmlns="http://www.w3.org/2000/svg" font-family="Arial, sans-serif">
<rect x="0" y="0" width="820" height="560" fill="#ffffff"/>

<rect x="110" y="30" width="600" height="110" rx="12" fill="none" stroke="#999999" stroke-width="1"/>
<rect x="96" y="70" width="16" height="30" rx="3" fill="none" stroke="#999999" stroke-width="1"/>
<text x="410" y="90" text-anchor="middle" font-size="13" font-weight="bold" fill="#999999">ESP32 DEVKİT</text>

<circle cx="150" cy="30" r="2.5" fill="#bbbbbb"/>
<circle cx="185" cy="30" r="2.5" fill="#bbbbbb"/>
<circle cx="220" cy="30" r="2.5" fill="#bbbbbb"/>
<circle cx="360" cy="30" r="2.5" fill="#bbbbbb"/>
<circle cx="500" cy="30" r="2.5" fill="#bbbbbb"/>
<circle cx="535" cy="30" r="2.5" fill="#bbbbbb"/>
<circle cx="605" cy="30" r="2.5" fill="#bbbbbb"/>
<circle cx="150" cy="140" r="2.5" fill="#bbbbbb"/>
<circle cx="185" cy="140" r="2.5" fill="#bbbbbb"/>
<circle cx="500" cy="140" r="2.5" fill="#bbbbbb"/>
<circle cx="605" cy="140" r="2.5" fill="#bbbbbb"/>
<circle cx="640" cy="140" r="2.5" fill="#bbbbbb"/>

<circle cx="255" cy="30" r="4" fill="#1D9E75"/>
<circle cx="290" cy="30" r="4" fill="#1D9E75"/>
<circle cx="325" cy="30" r="4" fill="#D85A30"/>
<circle cx="395" cy="30" r="4" fill="#D85A30"/>
<circle cx="430" cy="30" r="4" fill="#5F5E5A"/>
<circle cx="220" cy="140" r="4" fill="#BA7517"/>
<circle cx="255" cy="140" r="4" fill="#BA7517"/>
<circle cx="325" cy="140" r="4" fill="#3B6D11"/>
<circle cx="360" cy="140" r="4" fill="#2B6CB0"/>

<text x="70" y="180" font-size="12" fill="#888888">PIN</text>
<text x="180" y="180" font-size="12" fill="#888888">BİLEŞEN</text>
<text x="420" y="180" font-size="12" fill="#888888">GÖREV</text>
<line x1="60" y1="190" x2="760" y2="190" stroke="#dddddd" stroke-width="1"/>

<circle cx="70" cy="215" r="5" fill="#1D9E75"/>
<text x="90" y="220" font-size="13" font-weight="bold" fill="#222222">GPIO27</text>
<text x="180" y="220" font-size="12" fill="#444444">DHT22</text>
<text x="420" y="220" font-size="12" fill="#444444">Sıcaklık ve nem ölçümü</text>
<line x1="60" y1="234" x2="760" y2="234" stroke="#eeeeee" stroke-width="1"/>

<circle cx="70" cy="253" r="5" fill="#1D9E75"/>
<text x="90" y="258" font-size="13" font-weight="bold" fill="#222222">GPIO33</text>
<text x="180" y="258" font-size="12" fill="#444444">Kapasitif toprak nem sensörü</text>
<text x="420" y="258" font-size="12" fill="#444444">Analog nem okuma</text>
<line x1="60" y1="272" x2="760" y2="272" stroke="#eeeeee" stroke-width="1"/>

<circle cx="70" cy="291" r="5" fill="#D85A30"/>
<text x="90" y="296" font-size="13" font-weight="bold" fill="#222222">GPIO21</text>
<text x="180" y="296" font-size="12" fill="#444444">BH1750 / LCD (SDA)</text>
<text x="420" y="296" font-size="12" fill="#444444">I2C veri hattı</text>
<line x1="60" y1="310" x2="760" y2="310" stroke="#eeeeee" stroke-width="1"/>

<circle cx="70" cy="329" r="5" fill="#D85A30"/>
<text x="90" y="334" font-size="13" font-weight="bold" fill="#222222">GPIO22</text>
<text x="180" y="334" font-size="12" fill="#444444">BH1750 / LCD (SCL)</text>
<text x="420" y="334" font-size="12" fill="#444444">I2C saat hattı</text>
<line x1="60" y1="348" x2="760" y2="348" stroke="#eeeeee" stroke-width="1"/>

<circle cx="70" cy="367" r="5" fill="#3B6D11"/>
<text x="90" y="372" font-size="13" font-weight="bold" fill="#222222">GPIO19</text>
<text x="180" y="372" font-size="12" fill="#444444">Röle modülü</text>
<text x="420" y="372" font-size="12" fill="#444444">Grow LED kontrolü</text>
<line x1="60" y1="386" x2="760" y2="386" stroke="#eeeeee" stroke-width="1"/>

<circle cx="70" cy="405" r="5" fill="#5F5E5A"/>
<text x="90" y="410" font-size="13" font-weight="bold" fill="#222222">GPIO18</text>
<text x="180" y="410" font-size="12" fill="#444444">Buton</text>
<text x="420" y="410" font-size="12" fill="#444444">Manuel LED override</text>
<line x1="60" y1="424" x2="760" y2="424" stroke="#eeeeee" stroke-width="1"/>

<circle cx="70" cy="443" r="5" fill="#BA7517"/>
<text x="90" y="448" font-size="13" font-weight="bold" fill="#222222">GPIO4</text>
<text x="180" y="448" font-size="12" fill="#444444">Röle modülü</text>
<text x="420" y="448" font-size="12" fill="#444444">Salyangoz fan kontrolü</text>
<line x1="60" y1="462" x2="760" y2="462" stroke="#eeeeee" stroke-width="1"/>

<circle cx="70" cy="481" r="5" fill="#BA7517"/>
<text x="90" y="486" font-size="13" font-weight="bold" fill="#222222">GPIO15</text>
<text x="180" y="486" font-size="12" fill="#444444">Röle modülü</text>
<text x="420" y="486" font-size="12" fill="#444444">Tekli fan kontrolü</text>
<line x1="60" y1="500" x2="760" y2="500" stroke="#eeeeee" stroke-width="1"/>

<circle cx="70" cy="519" r="5" fill="#2B6CB0"/>
<text x="90" y="524" font-size="13" font-weight="bold" fill="#222222">GPIO25</text>
<text x="180" y="524" font-size="12" fill="#444444">Röle modülü</text>
<text x="420" y="524" font-size="12" fill="#444444">Su pompası kontrolü</text>

</svg>
