<svg width="820" height="520" viewBox="0 0 820 520" xmlns="http://www.w3.org/2000/svg" font-family="Arial, sans-serif">
<rect x="0" y="0" width="820" height="520" fill="#ffffff"/>

<defs>
<marker id="arrow" viewBox="0 0 10 10" refX="8" refY="5" markerWidth="6" markerHeight="6" orient="auto-start-reverse">
<path d="M2 1L8 5L2 9" fill="none" stroke="#555555" stroke-width="1.5" stroke-linecap="round" stroke-linejoin="round"/>
</marker>
</defs>

<rect x="40" y="30" width="560" height="110" rx="10" fill="none" stroke="#bbbbbb" stroke-width="1" stroke-dasharray="5 4"/>
<text x="56" y="22" font-size="12" fill="#888888">GİRİŞLER</text>

<rect x="56" y="60" width="120" height="60" rx="8" fill="#1D9E75" fill-opacity="0.12" stroke="#1D9E75" stroke-width="1.5"/>
<text x="116" y="86" text-anchor="middle" font-size="14" font-weight="bold" fill="#0f5c44">DHT22</text>
<text x="116" y="103" text-anchor="middle" font-size="12" fill="#0f5c44">GPIO27</text>

<rect x="192" y="60" width="120" height="60" rx="8" fill="#1D9E75" fill-opacity="0.12" stroke="#1D9E75" stroke-width="1.5"/>
<text x="252" y="86" text-anchor="middle" font-size="14" font-weight="bold" fill="#0f5c44">BH1750</text>
<text x="252" y="103" text-anchor="middle" font-size="12" fill="#0f5c44">I2C</text>

<rect x="328" y="60" width="120" height="60" rx="8" fill="#1D9E75" fill-opacity="0.12" stroke="#1D9E75" stroke-width="1.5"/>
<text x="388" y="86" text-anchor="middle" font-size="14" font-weight="bold" fill="#0f5c44">Toprak Nem</text>
<text x="388" y="103" text-anchor="middle" font-size="12" fill="#0f5c44">GPIO33</text>

<rect x="464" y="60" width="120" height="60" rx="8" fill="#5F5E5A" fill-opacity="0.12" stroke="#5F5E5A" stroke-width="1.5"/>
<text x="524" y="86" text-anchor="middle" font-size="14" font-weight="bold" fill="#3a3a38">Buton</text>
<text x="524" y="103" text-anchor="middle" font-size="12" fill="#3a3a38">GPIO18</text>

<rect x="245" y="220" width="150" height="70" rx="10" fill="#6B3FA0" fill-opacity="0.12" stroke="#6B3FA0" stroke-width="1.5"/>
<text x="320" y="248" text-anchor="middle" font-size="15" font-weight="bold" fill="#6B3FA0">ESP32</text>
<text x="320" y="266" text-anchor="middle" font-size="12" fill="#6B3FA0">Kontrol birimi</text>

<rect x="40" y="380" width="560" height="110" rx="10" fill="none" stroke="#bbbbbb" stroke-width="1" stroke-dasharray="5 4"/>
<text x="56" y="500" font-size="12" fill="#888888">ÇIKIŞLAR</text>

<rect x="56" y="410" width="120" height="60" rx="8" fill="#BA7517" fill-opacity="0.12" stroke="#BA7517" stroke-width="1.5"/>
<text x="116" y="436" text-anchor="middle" font-size="14" font-weight="bold" fill="#7a4d0f">Salyangoz Fan</text>
<text x="116" y="453" text-anchor="middle" font-size="12" fill="#7a4d0f">GPIO4</text>

<rect x="192" y="410" width="120" height="60" rx="8" fill="#BA7517" fill-opacity="0.12" stroke="#BA7517" stroke-width="1.5"/>
<text x="252" y="436" text-anchor="middle" font-size="14" font-weight="bold" fill="#7a4d0f">Tekli Fan</text>
<text x="252" y="453" text-anchor="middle" font-size="12" fill="#7a4d0f">GPIO15</text>

<rect x="328" y="410" width="120" height="60" rx="8" fill="#3B6D11" fill-opacity="0.12" stroke="#3B6D11" stroke-width="1.5"/>
<text x="388" y="436" text-anchor="middle" font-size="14" font-weight="bold" fill="#26480b">Grow LED</text>
<text x="388" y="453" text-anchor="middle" font-size="12" fill="#26480b">GPIO19</text>

<rect x="464" y="410" width="120" height="60" rx="8" fill="#2B6CB0" fill-opacity="0.12" stroke="#2B6CB0" stroke-width="1.5"/>
<text x="524" y="436" text-anchor="middle" font-size="14" font-weight="bold" fill="#1c4873">Su Pompası</text>
<text x="524" y="453" text-anchor="middle" font-size="12" fill="#1c4873">GPIO25</text>

<rect x="630" y="30" width="150" height="460" rx="10" fill="none" stroke="#bbbbbb" stroke-width="1" stroke-dasharray="5 4"/>
<text x="646" y="22" font-size="12" fill="#888888">İLETİŞİM</text>

<rect x="650" y="60" width="110" height="55" rx="8" fill="#D85A30" fill-opacity="0.12" stroke="#D85A30" stroke-width="1.5"/>
<text x="705" y="92" text-anchor="middle" font-size="12" fill="#8a3818">OLED Ekran</text>

<rect x="650" y="230" width="110" height="55" rx="8" fill="#D85A30" fill-opacity="0.12" stroke="#D85A30" stroke-width="1.5"/>
<text x="705" y="262" text-anchor="middle" font-size="12" fill="#8a3818">I2C LCD</text>

<rect x="650" y="400" width="110" height="55" rx="8" fill="#4C51BF" fill-opacity="0.12" stroke="#4C51BF" stroke-width="1.5"/>
<text x="705" y="432" text-anchor="middle" font-size="12" fill="#31367d">Blynk / WiFi</text>

<line x1="705" y1="115" x2="705" y2="455" stroke="#999999" stroke-width="1"/>
<line x1="630" y1="255" x2="397" y2="255" stroke="#999999" stroke-width="1" marker-end="url(#arrow)"/>
<line x1="397" y1="265" x2="630" y2="265" stroke="#999999" stroke-width="1" marker-end="url(#arrow)"/>

<line x1="116" y1="120" x2="290" y2="218" stroke="#999999" stroke-width="1" marker-end="url(#arrow)"/>
<line x1="252" y1="120" x2="305" y2="218" stroke="#999999" stroke-width="1" marker-end="url(#arrow)"/>
<line x1="388" y1="120" x2="335" y2="218" stroke="#999999" stroke-width="1" marker-end="url(#arrow)"/>
<line x1="524" y1="120" x2="360" y2="218" stroke="#999999" stroke-width="1" marker-end="url(#arrow)"/>

<line x1="290" y1="292" x2="116" y2="408" stroke="#999999" stroke-width="1" marker-end="url(#arrow)"/>
<line x1="305" y1="292" x2="252" y2="408" stroke="#999999" stroke-width="1" marker-end="url(#arrow)"/>
<line x1="335" y1="292" x2="388" y2="408" stroke="#999999" stroke-width="1" marker-end="url(#arrow)"/>
<line x1="360" y1="292" x2="524" y2="408" stroke="#999999" stroke-width="1" marker-end="url(#arrow)"/>

</svg>
